<svg width="48" height="49" viewBox="0 0 48 49" fill="none" xmlns="http://www.w3.org/2000/svg">
<path d="M36.2672 22.0322C37.431 32.7832 42 36.0322 42 36.0322H6C6 36.0322 12 31.7656 12 16.8322C12 13.4374 13.2643 10.1817 15.5147 7.78127C17.7652 5.38079 20.8174 4.03223 24 4.03223C24.6746 4.03223 25.3434 4.09283 26 4.21121" stroke="#FEF08A" stroke-width="1.5" stroke-linecap="round" stroke-linejoin="round"/>
<path d="M38 16.0322C41.3138 16.0322 44 13.3459 44 10.0322C44 6.71853 41.3138 4.03223 38 4.03223C34.6862 4.03223 32 6.71853 32 10.0322C32 13.3459 34.6862 16.0322 38 16.0322Z" stroke="#FEF08A" stroke-width="1.5" stroke-linecap="round" stroke-linejoin="round"/>
<path d="M27.46 42.0322C27.1084 42.6384 26.6038 43.1416 25.9964 43.4912C25.3892 43.841 24.7008 44.0252 24 44.0252C23.2992 44.0252 22.6108 43.841 22.0036 43.4912C21.3964 43.1416 20.8916 42.6384 20.54 42.0322" stroke="#FEF08A" stroke-width="1.5" stroke-linecap="round" stroke-linejoin="round"/>
</svg>
