<svg width="32" height="33" viewBox="0 0 32 33" fill="none" xmlns="http://www.w3.org/2000/svg">
<path d="M26 29.3657C27.1045 29.3657 28 28.4703 28 27.3657C28 26.2612 27.1045 25.3657 26 25.3657C24.8955 25.3657 24 26.2612 24 27.3657C24 28.4703 24.8955 29.3657 26 29.3657Z" stroke="#FEF08A" stroke-width="1.5" stroke-linecap="round" stroke-linejoin="round"/>
<path d="M12.6666 29.3657C13.7712 29.3657 14.6666 28.4703 14.6666 27.3657C14.6666 26.2612 13.7712 25.3657 12.6666 25.3657C11.5621 25.3657 10.6666 26.2612 10.6666 27.3657C10.6666 28.4703 11.5621 29.3657 12.6666 29.3657Z" stroke="#FEF08A" stroke-width="1.5" stroke-linecap="round" stroke-linejoin="round"/>
<path d="M6.66663 5.3654C6.4444 4.4765 5.33329 2.69873 2.66663 2.69873M6.66663 5.3654H29.3333L26.6666 20.0321H9.33329L6.66663 5.3654Z" stroke="#FEF08A" stroke-width="1.5" stroke-linecap="round" stroke-linejoin="round"/>
<path d="M26.6667 20.0322H9.33337H6.9744C4.59532 20.0322 3.33337 21.0738 3.33337 22.6989C3.33337 24.324 4.59532 25.3656 6.9744 25.3656H26" stroke="#FEF08A" stroke-width="1.5" stroke-linecap="round" stroke-linejoin="round"/>
</svg>
