<svg width="48" height="49" viewBox="0 0 48 49" fill="none" xmlns="http://www.w3.org/2000/svg">
<path d="M20 38.5V10.5M28 10.5H42.8C43.4628 10.5 44 11.0373 44 11.7V37.3C44 37.9628 43.4628 38.5 42.8 38.5H28V10.5ZM28 10.5V38.5V10.5ZM28 10.5H20H28ZM28 38.5H20H28ZM20 38.5H5.2C4.53726 38.5 4 37.9628 4 37.3V11.7C4 11.0373 4.53726 10.5 5.2 10.5H20V38.5Z" stroke="#FEF08A" stroke-width="1.5" stroke-linecap="round" stroke-linejoin="round"/>
<path d="M12.793 19.6904C12.9516 19.5764 13.1039 19.5878 13.2344 19.6709C13.3777 19.7625 13.4999 19.9507 13.5 20.1973V28.1211C13.4998 28.3676 13.3777 28.556 13.2344 28.6475C13.1203 28.7201 12.9896 28.7379 12.8525 28.665L12.793 28.6279C11.4033 27.6289 10.5 25.9994 10.5 24.1592C10.5 22.434 11.2938 20.8938 12.5381 19.8848L12.793 19.6904Z" fill="#FEF08A" stroke="#FEF08A"/>
<path d="M34.7656 19.6709C34.8797 19.5982 35.0104 19.5804 35.1475 19.6533L35.207 19.6904C36.5967 20.6896 37.5 22.319 37.5 24.1592C37.5 25.8844 36.7062 27.4247 35.4619 28.4336L35.207 28.6279C35.0484 28.742 34.8961 28.7306 34.7656 28.6475C34.6223 28.556 34.5002 28.3676 34.5 28.1211V20.1973C34.5001 19.9508 34.6223 19.7625 34.7656 19.6709Z" fill="#FEF08A" stroke="#FEF08A"/>
</svg>
