<svg width="32" height="33" viewBox="0 0 32 33" fill="none" xmlns="http://www.w3.org/2000/svg">
<path d="M22.6667 16.6991C23.0348 16.6991 23.3333 16.4005 23.3333 16.0324C23.3333 15.6643 23.0348 15.3657 22.6667 15.3657C22.2985 15.3657 22 15.6643 22 16.0324C22 16.4005 22.2985 16.6991 22.6667 16.6991Z" stroke="#FEF08A" stroke-width="1.5" stroke-linecap="round" stroke-linejoin="round"/>
<path d="M16 16.6991C16.3681 16.6991 16.6667 16.4005 16.6667 16.0324C16.6667 15.6643 16.3681 15.3657 16 15.3657C15.6319 15.3657 15.3333 15.6643 15.3333 16.0324C15.3333 16.4005 15.6319 16.6991 16 16.6991Z" fill="#FEF08A" stroke="#FEF08A" stroke-width="1.5" stroke-linecap="round" stroke-linejoin="round"/>
<path d="M9.33332 16.6991C9.70151 16.6991 9.99999 16.4005 9.99999 16.0324C9.99999 15.6643 9.70151 15.3657 9.33332 15.3657C8.96514 15.3657 8.66666 15.6643 8.66666 16.0324C8.66666 16.4005 8.96514 16.6991 9.33332 16.6991Z" fill="#FEF08A" stroke="#FEF08A" stroke-width="1.5" stroke-linecap="round" stroke-linejoin="round"/>
<path d="M16 29.3654C23.3637 29.3654 29.3333 23.3958 29.3333 16.0321C29.3333 8.66826 23.3637 2.69873 16 2.69873C8.63619 2.69873 2.66666 8.66826 2.66666 16.0321C2.66666 18.4606 3.31595 20.7375 4.45042 22.6987L3.33332 28.6987L9.33332 27.5817C11.2945 28.7161 13.5715 29.3654 16 29.3654Z" stroke="#FEF08A" stroke-width="1.5" stroke-linecap="round" stroke-linejoin="round"/>
</svg>
