<svg width="24" height="25" viewBox="0 0 24 25" fill="none" xmlns="http://www.w3.org/2000/svg">
<path d="M10.486 16.7461C10.3547 16.7464 10.2247 16.7207 10.1034 16.6706C9.98206 16.6205 9.87182 16.5469 9.779 16.4541L5.537 12.2111C5.44143 12.1189 5.36517 12.0087 5.31268 11.8867C5.26018 11.7647 5.23251 11.6335 5.23126 11.5007C5.23001 11.368 5.25522 11.2363 5.30542 11.1133C5.35561 10.9904 5.42978 10.8787 5.52361 10.7848C5.61744 10.6908 5.72903 10.6165 5.85189 10.5661C5.97475 10.5157 6.10641 10.4903 6.23919 10.4914C6.37197 10.4925 6.50321 10.5199 6.62525 10.5723C6.74729 10.6246 6.85769 10.7007 6.95 10.7961L10.485 14.3311L16.85 7.96813C17.0375 7.78049 17.2919 7.67502 17.5571 7.67493C17.8224 7.67483 18.0769 7.78012 18.2645 7.96763C18.4521 8.15514 18.5576 8.40951 18.5577 8.67478C18.5578 8.94005 18.4525 9.19449 18.265 9.38213L11.193 16.4541C11.1002 16.5469 10.9899 16.6205 10.8686 16.6706C10.7473 16.7207 10.6173 16.7464 10.486 16.7461Z" fill="#0F172A"/>
</svg>
