<svg width="48" height="49" viewBox="0 0 48 49" fill="none" xmlns="http://www.w3.org/2000/svg">
<path d="M40 35.2468C42.9874 34.0764 46 31.41 46 26.0322C46 18.0322 39.3334 16.0322 36 16.0322C36 12.0322 36 4.03223 24 4.03223C12 4.03223 12 12.0322 12 16.0322C8.66666 16.0322 2 18.0322 2 26.0322C2 31.41 5.01256 34.0764 8 35.2468" stroke="#FEF08A" stroke-width="1.5" stroke-linecap="round" stroke-linejoin="round"/>
<path d="M15.1611 39.0068L18.6967 42.5424C21.821 45.6666 26.8862 45.6666 30.0104 42.5424L30.7176 41.8352" stroke="#FEF08A" stroke-width="1.5" stroke-linecap="round" stroke-linejoin="round"/>
<path d="M15.8682 43.9566L15.1611 39.0068L20.1108 39.714L15.8682 43.9566Z" stroke="#FEF08A" stroke-width="1.5" stroke-linecap="round" stroke-linejoin="round"/>
<path d="M32.5962 33.8356L29.0606 30.3002C25.9364 27.176 20.871 27.176 17.7469 30.3002L17.0398 31.0072" stroke="#FEF08A" stroke-width="1.5" stroke-linecap="round" stroke-linejoin="round"/>
<path d="M31.889 28.8857L32.5962 33.8355L27.6464 33.1283L31.889 28.8857Z" stroke="#FEF08A" stroke-width="1.5" stroke-linecap="round" stroke-linejoin="round"/>
</svg>
