<svg width="236" height="289" viewBox="0 0 236 289" fill="none" xmlns="http://www.w3.org/2000/svg">
<path d="M202 52.1895L198.914 53.812L199.503 50.375L197.005 47.941L200.456 47.4395L202 44.312L203.544 47.4395L206.995 47.941L204.497 50.375L205.087 53.812L202 52.1895Z" fill="#FACC15"/>
<path d="M53 93.1895L49.9135 94.812L50.503 91.375L48.005 88.941L51.456 88.4395L53 85.312L54.5435 88.4395L57.9945 88.941L55.497 91.375L56.087 94.812L53 93.1895Z" fill="#FACC15"/>
<g clip-path="url(#clip0_1_11749)">
<path d="M189 77.5162C187.619 77.5162 186.5 76.397 186.5 75.0162C186.5 73.6355 187.619 72.5162 189 72.5162C190.381 72.5162 191.5 73.6355 191.5 75.0162C191.5 76.397 190.381 77.5162 189 77.5162Z" fill="#FACC15"/>
</g>
<g clip-path="url(#clip1_1_11749)">
<path d="M63 55.1937C60.6988 55.1937 58.8334 53.3283 58.8334 51.0271C58.8334 48.7258 60.6988 46.8604 63 46.8604C65.3013 46.8604 67.1667 48.7258 67.1667 51.0271C67.1667 53.3283 65.3013 55.1937 63 55.1937Z" fill="#FACC15"/>
</g>
<g clip-path="url(#clip2_1_11749)">
<path d="M52 271.194C49.6988 271.194 47.8334 269.328 47.8334 267.027C47.8334 264.726 49.6988 262.86 52 262.86C54.3013 262.86 56.1667 264.726 56.1667 267.027C56.1667 269.328 54.3013 271.194 52 271.194Z" fill="#FACC15"/>
</g>
<path d="M28 122.71C24.318 122.71 21.3334 119.725 21.3334 116.043C21.3334 112.361 24.318 109.377 28 109.377C31.682 109.377 34.6667 112.361 34.6667 116.043C34.6667 119.725 31.682 122.71 28 122.71Z" fill="#FACC15"/>
<g clip-path="url(#clip3_1_11749)">
<path d="M78 97.5162C76.6193 97.5162 75.5 96.397 75.5 95.0162C75.5 93.6355 76.6193 92.5162 78 92.5162C79.3807 92.5162 80.5 93.6355 80.5 95.0162C80.5 96.397 79.3807 97.5162 78 97.5162Z" fill="#FACC15"/>
</g>
<g clip-path="url(#clip4_1_11749)">
<path d="M216 20.5163C214.619 20.5163 213.5 19.397 213.5 18.0163C213.5 16.6355 214.619 15.5163 216 15.5163C217.381 15.5163 218.5 16.6355 218.5 18.0163C218.5 19.397 217.381 20.5163 216 20.5163Z" fill="#FACC15"/>
</g>
<g clip-path="url(#clip5_1_11749)">
<path d="M183 3.6775C182.08 3.6775 181.333 2.93133 181.333 2.01083C181.333 1.09033 182.08 0.344162 183 0.344162C183.921 0.344162 184.667 1.09033 184.667 2.01083C184.667 2.93133 183.921 3.6775 183 3.6775Z" fill="#FACC15"/>
</g>
<g clip-path="url(#clip6_1_11749)">
<path d="M25 288.678C24.0795 288.678 23.3334 287.931 23.3334 287.011C23.3334 286.09 24.0795 285.344 25 285.344C25.9205 285.344 26.6667 286.09 26.6667 287.011C26.6667 287.931 25.9205 288.678 25 288.678Z" fill="#FACC15"/>
</g>
<path d="M178.933 57.6V54.2667C178.933 54.0899 178.863 53.9203 178.738 53.7953C178.613 53.6702 178.443 53.6 178.267 53.6C178.09 53.6 177.92 53.6702 177.795 53.7953C177.67 53.9203 177.6 54.0899 177.6 54.2667V57.6H174.267C174.09 57.6 173.92 57.6702 173.795 57.7953C173.67 57.9203 173.6 58.0899 173.6 58.2667C173.6 58.4435 173.67 58.6131 173.795 58.7381C173.92 58.8631 174.09 58.9333 174.267 58.9333H177.6V62.2667C177.6 62.4435 177.67 62.6131 177.795 62.7381C177.92 62.8631 178.09 62.9333 178.267 62.9333C178.443 62.9333 178.613 62.8631 178.738 62.7381C178.863 62.6131 178.933 62.4435 178.933 62.2667V58.9333H182.267C182.443 58.9333 182.613 58.8631 182.738 58.7381C182.863 58.6131 182.933 58.4435 182.933 58.2667C182.933 58.0899 182.863 57.9203 182.738 57.7953C182.613 57.6702 182.443 57.6 182.267 57.6H178.933Z" fill="#FACC15"/>
<path d="M230.7 59.7V57.2C230.7 57.0674 230.647 56.9402 230.554 56.8464C230.46 56.7527 230.333 56.7 230.2 56.7C230.067 56.7 229.94 56.7527 229.846 56.8464C229.753 56.9402 229.7 57.0674 229.7 57.2V59.7H227.2C227.067 59.7 226.94 59.7527 226.846 59.8464C226.753 59.9402 226.7 60.0674 226.7 60.2C226.7 60.3326 226.753 60.4598 226.846 60.5536C226.94 60.6473 227.067 60.7 227.2 60.7H229.7V63.2C229.7 63.3326 229.753 63.4598 229.846 63.5536C229.94 63.6473 230.067 63.7 230.2 63.7C230.333 63.7 230.46 63.6473 230.554 63.5536C230.647 63.4598 230.7 63.3326 230.7 63.2V60.7H233.2C233.333 60.7 233.46 60.6473 233.554 60.5536C233.647 60.4598 233.7 60.3326 233.7 60.2C233.7 60.0674 233.647 59.9402 233.554 59.8464C233.46 59.7527 233.333 59.7 233.2 59.7H230.7Z" fill="#FACC15"/>
<path d="M216.876 84.9333L219.233 82.576C219.296 82.5145 219.347 82.4409 219.382 82.3596C219.417 82.2783 219.435 82.1908 219.436 82.1023C219.437 82.0137 219.42 81.926 219.387 81.844C219.353 81.7621 219.304 81.6877 219.241 81.6251C219.178 81.5625 219.104 81.513 219.022 81.4795C218.94 81.4459 218.852 81.4291 218.764 81.4298C218.675 81.4306 218.588 81.449 218.506 81.4839C218.425 81.5189 218.351 81.5697 218.29 81.6333L215.933 83.99L213.576 81.6333C213.515 81.5697 213.441 81.5189 213.36 81.4839C213.278 81.449 213.191 81.4306 213.102 81.4298C213.014 81.4291 212.926 81.4459 212.844 81.4795C212.762 81.513 212.688 81.5625 212.625 81.6251C212.562 81.6877 212.513 81.7621 212.479 81.844C212.446 81.926 212.429 82.0137 212.43 82.1023C212.431 82.1908 212.449 82.2783 212.484 82.3596C212.519 82.4409 212.57 82.5145 212.633 82.576L214.99 84.9327L212.633 87.29C212.57 87.3515 212.519 87.4251 212.484 87.5064C212.449 87.5877 212.431 87.6752 212.43 87.7637C212.429 87.8523 212.446 87.94 212.479 88.022C212.513 88.1039 212.562 88.1783 212.625 88.2409C212.688 88.3035 212.762 88.353 212.844 88.3865C212.926 88.4201 213.014 88.4369 213.102 88.4362C213.191 88.4354 213.278 88.417 213.36 88.3821C213.441 88.3471 213.515 88.2963 213.576 88.2327L215.933 85.876L218.29 88.2327C218.351 88.2963 218.425 88.3471 218.506 88.3821C218.588 88.417 218.675 88.4354 218.764 88.4362C218.852 88.4369 218.94 88.4201 219.022 88.3865C219.104 88.353 219.178 88.3035 219.241 88.2409C219.304 88.1783 219.353 88.1039 219.387 88.022C219.42 87.94 219.437 87.8523 219.436 87.7637C219.435 87.6752 219.417 87.5877 219.382 87.5064C219.347 87.4251 219.296 87.3515 219.233 87.29L216.876 84.9327V84.9333Z" fill="#FACC15"/>
<path d="M31.5475 254.958L33.0205 253.485C33.0603 253.447 33.092 253.401 33.1138 253.35C33.1357 253.299 33.1472 253.244 33.1477 253.189C33.1481 253.134 33.1376 253.079 33.1166 253.028C33.0957 252.976 33.0648 252.93 33.0256 252.891C32.9865 252.852 32.94 252.821 32.8888 252.8C32.8376 252.779 32.7827 252.768 32.7274 252.769C32.6721 252.769 32.6174 252.781 32.5665 252.802C32.5157 252.824 32.4697 252.856 32.4313 252.896L30.958 254.369L29.485 252.896C29.4466 252.856 29.4006 252.824 29.3498 252.802C29.299 252.781 29.2443 252.769 29.189 252.769C29.1336 252.768 29.0788 252.779 29.0276 252.8C28.9764 252.821 28.9298 252.852 28.8907 252.891C28.8516 252.93 28.8207 252.976 28.7997 253.028C28.7788 253.079 28.7682 253.134 28.7687 253.189C28.7692 253.244 28.7807 253.299 28.8025 253.35C28.8243 253.401 28.8561 253.447 28.8959 253.485L30.3688 254.958L28.8959 256.431C28.8561 256.47 28.8243 256.516 28.8025 256.566C28.7807 256.617 28.7692 256.672 28.7687 256.727C28.7682 256.783 28.7788 256.838 28.7997 256.889C28.8207 256.94 28.8516 256.986 28.8907 257.026C28.9298 257.065 28.9764 257.096 29.0276 257.117C29.0788 257.138 29.1336 257.148 29.189 257.148C29.2443 257.147 29.299 257.136 29.3498 257.114C29.4006 257.092 29.4466 257.06 29.485 257.02L30.958 255.547L32.4313 257.02C32.4697 257.06 32.5157 257.092 32.5665 257.114C32.6174 257.136 32.6721 257.147 32.7274 257.148C32.7827 257.148 32.8376 257.138 32.8888 257.117C32.94 257.096 32.9865 257.065 33.0256 257.026C33.0648 256.986 33.0957 256.94 33.1166 256.889C33.1376 256.838 33.1481 256.783 33.1477 256.727C33.1472 256.672 33.1357 256.617 33.1138 256.566C33.092 256.516 33.0603 256.47 33.0205 256.431L31.5475 254.958V254.958Z" fill="#FACC15"/>
<path d="M53.7 140.7V138.2C53.7 138.067 53.6473 137.94 53.5535 137.846C53.4597 137.753 53.3326 137.7 53.2 137.7C53.0673 137.7 52.9402 137.753 52.8464 137.846C52.7526 137.94 52.7 138.067 52.7 138.2V140.7H50.2C50.0673 140.7 49.9402 140.753 49.8464 140.846C49.7526 140.94 49.7 141.067 49.7 141.2C49.7 141.333 49.7526 141.46 49.8464 141.554C49.9402 141.647 50.0673 141.7 50.2 141.7H52.7V144.2C52.7 144.333 52.7526 144.46 52.8464 144.554C52.9402 144.647 53.0673 144.7 53.2 144.7C53.3326 144.7 53.4597 144.647 53.5535 144.554C53.6473 144.46 53.7 144.333 53.7 144.2V141.7H56.2C56.3326 141.7 56.4597 141.647 56.5535 141.554C56.6473 141.46 56.7 141.333 56.7 141.2C56.7 141.067 56.6473 140.94 56.5535 140.846C56.4597 140.753 56.3326 140.7 56.2 140.7H53.7Z" fill="#FACC15"/>
<path d="M8.93331 234.6V231.267C8.93331 231.09 8.86307 230.92 8.73805 230.795C8.61302 230.67 8.44345 230.6 8.26664 230.6C8.08983 230.6 7.92026 230.67 7.79524 230.795C7.67021 230.92 7.59998 231.09 7.59998 231.267V234.6H4.26664C4.08983 234.6 3.92026 234.67 3.79524 234.795C3.67021 234.92 3.59998 235.09 3.59998 235.267C3.59998 235.443 3.67021 235.613 3.79524 235.738C3.92026 235.863 4.08983 235.933 4.26664 235.933H7.59998V239.267C7.59998 239.443 7.67021 239.613 7.79524 239.738C7.92026 239.863 8.08983 239.933 8.26664 239.933C8.44345 239.933 8.61302 239.863 8.73805 239.738C8.86307 239.613 8.93331 239.443 8.93331 239.267V235.933H12.2666C12.4435 235.933 12.613 235.863 12.738 235.738C12.8631 235.613 12.9333 235.443 12.9333 235.267C12.9333 235.09 12.8631 234.92 12.738 234.795C12.613 234.67 12.4435 234.6 12.2666 234.6H8.93331Z" fill="#FACC15"/>
<path d="M39.876 64.9333L42.2327 62.576C42.2963 62.5145 42.3471 62.4409 42.3821 62.3596C42.417 62.2783 42.4354 62.1908 42.4362 62.1023C42.4369 62.0137 42.4201 61.926 42.3865 61.844C42.353 61.7621 42.3035 61.6877 42.2409 61.6251C42.1783 61.5625 42.1039 61.513 42.022 61.4795C41.94 61.4459 41.8523 61.4291 41.7637 61.4298C41.6752 61.4306 41.5877 61.449 41.5064 61.4839C41.4251 61.5189 41.3515 61.5697 41.29 61.6333L38.9327 63.99L36.576 61.6333C36.5145 61.5697 36.4409 61.5189 36.3596 61.4839C36.2783 61.449 36.1908 61.4306 36.1023 61.4298C36.0137 61.4291 35.926 61.4459 35.844 61.4795C35.7621 61.513 35.6877 61.5625 35.6251 61.6251C35.5625 61.6877 35.513 61.7621 35.4795 61.844C35.4459 61.926 35.4291 62.0137 35.4298 62.1023C35.4306 62.1908 35.449 62.2783 35.4839 62.3596C35.5189 62.4409 35.5697 62.5145 35.6333 62.576L37.99 64.9327L35.6333 67.29C35.5697 67.3515 35.5189 67.4251 35.4839 67.5064C35.449 67.5877 35.4306 67.6752 35.4298 67.7637C35.4291 67.8523 35.4459 67.94 35.4795 68.022C35.513 68.1039 35.5625 68.1783 35.6251 68.2409C35.6877 68.3035 35.7621 68.353 35.844 68.3865C35.926 68.4201 36.0137 68.4369 36.1023 68.4362C36.1908 68.4354 36.2783 68.417 36.3596 68.3821C36.4409 68.3471 36.5145 68.2963 36.576 68.2327L38.9327 65.876L41.29 68.2327C41.3515 68.2963 41.4251 68.3471 41.5064 68.3821C41.5877 68.417 41.6752 68.4354 41.7637 68.4362C41.8523 68.4369 41.94 68.4201 42.022 68.3865C42.1039 68.353 42.1783 68.3035 42.2409 68.2409C42.3035 68.1783 42.353 68.1039 42.3865 68.022C42.4201 67.94 42.4369 67.8523 42.4362 67.7637C42.4354 67.6752 42.417 67.5877 42.3821 67.5064C42.3471 67.4251 42.2963 67.3515 42.2327 67.29L39.876 64.9327V64.9333Z" fill="#FACC15"/>
<defs>
<clipPath id="clip0_1_11749">
<rect width="6" height="6" fill="white" transform="translate(186 72)"/>
</clipPath>
<clipPath id="clip1_1_11749">
<rect width="10" height="10" fill="white" transform="translate(58 46)"/>
</clipPath>
<clipPath id="clip2_1_11749">
<rect width="10" height="10" fill="white" transform="translate(47 262)"/>
</clipPath>
<clipPath id="clip3_1_11749">
<rect width="6" height="6" fill="white" transform="translate(75 92)"/>
</clipPath>
<clipPath id="clip4_1_11749">
<rect width="6" height="6" fill="white" transform="translate(213 15)"/>
</clipPath>
<clipPath id="clip5_1_11749">
<rect width="4" height="4" fill="white" transform="translate(181)"/>
</clipPath>
<clipPath id="clip6_1_11749">
<rect width="4" height="4" fill="white" transform="translate(23 285)"/>
</clipPath>
</defs>
</svg>
