<svg width="167" height="248" viewBox="0 0 167 248" fill="none" xmlns="http://www.w3.org/2000/svg">
<path d="M117 245.19L113.913 246.812L114.503 243.375L112.005 240.941L115.456 240.44L117 237.312L118.543 240.44L121.994 240.941L119.497 243.375L120.087 246.812L117 245.19Z" fill="#FB923C"/>
<path d="M29.9995 13.1895L26.913 14.812L27.5025 11.375L25.0045 8.94101L28.4555 8.43951L29.9995 5.31201L31.543 8.43951L34.994 8.94101L32.4965 11.375L33.0865 14.812L29.9995 13.1895Z" fill="#FB923C"/>
<g clip-path="url(#clip0_1_11723)">
<path d="M132 173.204C130.619 173.204 129.5 172.085 129.5 170.704C129.5 169.323 130.619 168.204 132 168.204C133.38 168.204 134.5 169.323 134.5 170.704C134.5 172.085 133.38 173.204 132 173.204Z" fill="#FB923C"/>
</g>
<g clip-path="url(#clip1_1_11723)">
<path d="M57.9995 31.1937C55.6982 31.1937 53.8328 29.3283 53.8328 27.0271C53.8328 24.7258 55.6982 22.8604 57.9995 22.8604C60.3007 22.8604 62.1662 24.7258 62.1662 27.0271C62.1662 29.3283 60.3007 31.1937 57.9995 31.1937Z" fill="#FB923C"/>
</g>
<g clip-path="url(#clip2_1_11723)">
<path d="M144.999 213.194C142.698 213.194 140.833 211.328 140.833 209.027C140.833 206.726 142.698 204.86 144.999 204.86C147.301 204.86 149.166 206.726 149.166 209.027C149.166 211.328 147.301 213.194 144.999 213.194Z" fill="#FB923C"/>
</g>
<path d="M24.9995 52.71C21.3175 52.71 18.3328 49.7253 18.3328 46.0433C18.3328 42.3613 21.3175 39.3767 24.9995 39.3767C28.6815 39.3767 31.6662 42.3613 31.6662 46.0433C31.6662 49.7253 28.6815 52.71 24.9995 52.71Z" fill="#FB923C"/>
<g clip-path="url(#clip3_1_11723)">
<path d="M62.9995 67.5162C61.6188 67.5162 60.4995 66.397 60.4995 65.0162C60.4995 63.6355 61.6188 62.5162 62.9995 62.5162C64.3803 62.5162 65.4995 63.6355 65.4995 65.0162C65.4995 66.397 64.3803 67.5162 62.9995 67.5162Z" fill="#FB923C"/>
</g>
<g clip-path="url(#clip4_1_11723)">
<path d="M142 68.5162C140.619 68.5162 139.5 67.397 139.5 66.0162C139.5 64.6355 140.619 63.5162 142 63.5162C143.38 63.5162 144.5 64.6355 144.5 66.0162C144.5 67.397 143.38 68.5162 142 68.5162Z" fill="#FB923C"/>
</g>
<g clip-path="url(#clip5_1_11723)">
<path d="M126.999 14.6775C126.079 14.6775 125.333 13.9313 125.333 13.0108C125.333 12.0903 126.079 11.3442 126.999 11.3442C127.92 11.3442 128.666 12.0903 128.666 13.0108C128.666 13.9313 127.92 14.6775 126.999 14.6775Z" fill="#FB923C"/>
</g>
<g clip-path="url(#clip6_1_11723)">
<path d="M7.99949 3.67751C7.07899 3.67751 6.33282 2.93134 6.33282 2.01084C6.33282 1.09034 7.07899 0.344177 7.99949 0.344177C8.91999 0.344177 9.66616 1.09034 9.66616 2.01084C9.66616 2.93134 8.91999 3.67751 7.99949 3.67751Z" fill="#FB923C"/>
</g>
<path d="M112.933 150.288V146.955C112.933 146.778 112.863 146.608 112.738 146.483C112.613 146.358 112.443 146.288 112.266 146.288C112.089 146.288 111.92 146.358 111.795 146.483C111.67 146.608 111.599 146.778 111.599 146.955V150.288H108.266C108.089 150.288 107.92 150.358 107.795 150.483C107.67 150.608 107.599 150.778 107.599 150.955C107.599 151.131 107.67 151.301 107.795 151.426C107.92 151.551 108.089 151.621 108.266 151.621H111.599V154.955C111.599 155.131 111.67 155.301 111.795 155.426C111.92 155.551 112.089 155.621 112.266 155.621C112.443 155.621 112.613 155.551 112.738 155.426C112.863 155.301 112.933 155.131 112.933 154.955V151.621H116.266C116.443 151.621 116.613 151.551 116.738 151.426C116.863 151.301 116.933 151.131 116.933 150.955C116.933 150.778 116.863 150.608 116.738 150.483C116.613 150.358 116.443 150.288 116.266 150.288H112.933Z" fill="#FB923C"/>
<path d="M115.7 61.7V59.2C115.7 59.0674 115.647 58.9402 115.553 58.8465C115.459 58.7527 115.332 58.7 115.2 58.7C115.067 58.7 114.94 58.7527 114.846 58.8465C114.752 58.9402 114.7 59.0674 114.7 59.2V61.7H112.2C112.067 61.7 111.94 61.7527 111.846 61.8465C111.752 61.9402 111.7 62.0674 111.7 62.2C111.7 62.3326 111.752 62.4598 111.846 62.5536C111.94 62.6473 112.067 62.7 112.2 62.7H114.7V65.2C114.7 65.3326 114.752 65.4598 114.846 65.5536C114.94 65.6473 115.067 65.7 115.2 65.7C115.332 65.7 115.459 65.6473 115.553 65.5536C115.647 65.4598 115.7 65.3326 115.7 65.2V62.7H118.2C118.332 62.7 118.459 62.6473 118.553 62.5536C118.647 62.4598 118.7 62.3326 118.7 62.2C118.7 62.0674 118.647 61.9402 118.553 61.8465C118.459 61.7527 118.332 61.7 118.2 61.7H115.7Z" fill="#FB923C"/>
<path d="M122.547 88.9583L124.02 87.485C124.06 87.4465 124.091 87.4006 124.113 87.3497C124.135 87.2989 124.147 87.2442 124.147 87.1889C124.148 87.1336 124.137 87.0787 124.116 87.0275C124.095 86.9763 124.064 86.9298 124.025 86.8907C123.986 86.8515 123.939 86.8206 123.888 86.7996C123.837 86.7787 123.782 86.7682 123.727 86.7686C123.672 86.7691 123.617 86.7806 123.566 86.8024C123.515 86.8243 123.469 86.856 123.431 86.8958L121.957 88.3687L120.484 86.8958C120.446 86.856 120.4 86.8243 120.349 86.8024C120.298 86.7806 120.244 86.7691 120.188 86.7686C120.133 86.7682 120.078 86.7787 120.027 86.7996C119.976 86.8206 119.929 86.8515 119.89 86.8907C119.851 86.9298 119.82 86.9763 119.799 87.0275C119.778 87.0787 119.768 87.1336 119.768 87.1889C119.769 87.2442 119.78 87.2989 119.802 87.3497C119.824 87.4006 119.856 87.4465 119.895 87.485L121.368 88.9579L119.895 90.4312C119.856 90.4697 119.824 90.5156 119.802 90.5665C119.78 90.6173 119.769 90.672 119.768 90.7273C119.768 90.7826 119.778 90.8375 119.799 90.8887C119.82 90.9399 119.851 90.9864 119.89 91.0256C119.929 91.0647 119.976 91.0956 120.027 91.1166C120.078 91.1375 120.133 91.1481 120.188 91.1476C120.244 91.1471 120.298 91.1356 120.349 91.1138C120.4 91.0919 120.446 91.0602 120.484 91.0204L121.957 89.5475L123.431 91.0204C123.469 91.0602 123.515 91.0919 123.566 91.1138C123.617 91.1356 123.672 91.1471 123.727 91.1476C123.782 91.1481 123.837 91.1375 123.888 91.1166C123.939 91.0956 123.986 91.0647 124.025 91.0256C124.064 90.9864 124.095 90.9399 124.116 90.8887C124.137 90.8375 124.148 90.7826 124.147 90.7273C124.147 90.672 124.135 90.6173 124.113 90.5665C124.091 90.5156 124.06 90.4697 124.02 90.4312L122.547 88.9579V88.9583Z" fill="#FB923C"/>
<path d="M43.6995 96.7V94.2C43.6995 94.0674 43.6468 93.9402 43.5531 93.8465C43.4593 93.7527 43.3321 93.7 43.1995 93.7C43.0669 93.7 42.9397 93.7527 42.846 93.8465C42.7522 93.9402 42.6995 94.0674 42.6995 94.2V96.7H40.1995C40.0669 96.7 39.9397 96.7527 39.846 96.8465C39.7522 96.9402 39.6995 97.0674 39.6995 97.2C39.6995 97.3326 39.7522 97.4598 39.846 97.5536C39.9397 97.6473 40.0669 97.7 40.1995 97.7H42.6995V100.2C42.6995 100.333 42.7522 100.46 42.846 100.554C42.9397 100.647 43.0669 100.7 43.1995 100.7C43.3321 100.7 43.4593 100.647 43.5531 100.554C43.6468 100.46 43.6995 100.333 43.6995 100.2V97.7H46.1995C46.3321 97.7 46.4593 97.6473 46.5531 97.5536C46.6468 97.4598 46.6995 97.3326 46.6995 97.2C46.6995 97.0674 46.6468 96.9402 46.5531 96.8465C46.4593 96.7527 46.3321 96.7 46.1995 96.7H43.6995Z" fill="#FB923C"/>
<path d="M159.933 175.6V172.267C159.933 172.09 159.863 171.92 159.738 171.795C159.613 171.67 159.443 171.6 159.266 171.6C159.089 171.6 158.92 171.67 158.795 171.795C158.67 171.92 158.599 172.09 158.599 172.267V175.6H155.266C155.089 175.6 154.92 175.67 154.795 175.795C154.67 175.92 154.599 176.09 154.599 176.267C154.599 176.443 154.67 176.613 154.795 176.738C154.92 176.863 155.089 176.933 155.266 176.933H158.599V180.267C158.599 180.443 158.67 180.613 158.795 180.738C158.92 180.863 159.089 180.933 159.266 180.933C159.443 180.933 159.613 180.863 159.738 180.738C159.863 180.613 159.933 180.443 159.933 180.267V176.933H163.266C163.443 176.933 163.613 176.863 163.738 176.738C163.863 176.613 163.933 176.443 163.933 176.267C163.933 176.09 163.863 175.92 163.738 175.795C163.613 175.67 163.443 175.6 163.266 175.6H159.933Z" fill="#FB923C"/>
<path d="M8.87551 79.9333L11.2322 77.576C11.2959 77.5145 11.3466 77.4409 11.3816 77.3596C11.4165 77.2783 11.4349 77.1908 11.4357 77.1023C11.4364 77.0137 11.4196 76.926 11.3861 76.844C11.3525 76.7621 11.303 76.6877 11.2404 76.6251C11.1778 76.5625 11.1034 76.513 11.0215 76.4795C10.9396 76.4459 10.8518 76.4291 10.7632 76.4298C10.6747 76.4306 10.5872 76.449 10.5059 76.4839C10.4246 76.5189 10.351 76.5697 10.2895 76.6333L7.93218 78.99L5.57551 76.6333C5.51402 76.5697 5.44045 76.5189 5.35912 76.4839C5.27778 76.449 5.1903 76.4306 5.10178 76.4298C5.01326 76.4291 4.92548 76.4459 4.84354 76.4795C4.76161 76.513 4.68718 76.5625 4.62458 76.6251C4.56199 76.6877 4.51249 76.7621 4.47897 76.844C4.44545 76.926 4.42858 77.0137 4.42935 77.1023C4.43012 77.1908 4.44851 77.2783 4.48345 77.3596C4.51839 77.4409 4.56917 77.5145 4.63285 77.576L6.98951 79.9327L4.63285 82.29C4.56917 82.3515 4.51839 82.4251 4.48345 82.5064C4.44851 82.5877 4.43012 82.6752 4.42935 82.7637C4.42858 82.8523 4.44545 82.94 4.47897 83.022C4.51249 83.1039 4.56199 83.1783 4.62458 83.2409C4.68718 83.3035 4.76161 83.353 4.84354 83.3865C4.92548 83.4201 5.01326 83.4369 5.10178 83.4362C5.1903 83.4354 5.27778 83.417 5.35912 83.3821C5.44045 83.3471 5.51402 83.2963 5.57551 83.2327L7.93218 80.876L10.2895 83.2327C10.351 83.2963 10.4246 83.3471 10.5059 83.3821C10.5872 83.417 10.6747 83.4354 10.7632 83.4362C10.8518 83.4369 10.9396 83.4201 11.0215 83.3865C11.1034 83.353 11.1778 83.3035 11.2404 83.2409C11.303 83.1783 11.3525 83.1039 11.3861 83.022C11.4196 82.94 11.4364 82.8523 11.4357 82.7637C11.4349 82.6752 11.4165 82.5877 11.3816 82.5064C11.3466 82.4251 11.2959 82.3515 11.2322 82.29L8.87551 79.9327V79.9333Z" fill="#FB923C"/>
<defs>
<clipPath id="clip0_1_11723">
<rect width="6" height="6" fill="white" transform="translate(129 167.688)"/>
</clipPath>
<clipPath id="clip1_1_11723">
<rect width="10" height="10" fill="white" transform="translate(52.9995 22)"/>
</clipPath>
<clipPath id="clip2_1_11723">
<rect width="10" height="10" fill="white" transform="translate(140 204)"/>
</clipPath>
<clipPath id="clip3_1_11723">
<rect width="6" height="6" fill="white" transform="translate(59.9995 62)"/>
</clipPath>
<clipPath id="clip4_1_11723">
<rect width="6" height="6" fill="white" transform="translate(139 63)"/>
</clipPath>
<clipPath id="clip5_1_11723">
<rect width="4" height="4" fill="white" transform="translate(125 11)"/>
</clipPath>
<clipPath id="clip6_1_11723">
<rect width="4" height="4" fill="white" transform="translate(5.99951)"/>
</clipPath>
</defs>
</svg>
