<svg width="48" height="49" viewBox="0 0 48 49" fill="none" xmlns="http://www.w3.org/2000/svg">
<path d="M38 40.0322H10C7.79086 40.0322 6 38.2414 6 36.0322V18.0322C6 15.8231 7.79086 14.0322 10 14.0322H38C40.2092 14.0322 42 15.8231 42 18.0322V36.0322C42 38.2414 40.2092 40.0322 38 40.0322Z" stroke="#FEF08A" stroke-width="1.5"/>
<path d="M14 14.0322V7.23223C14 6.56949 14.5373 6.03223 15.2 6.03223H32.8C33.4628 6.03223 34 6.56949 34 7.23223V14.0322" stroke="#FEF08A" stroke-width="1.5"/>
<path d="M20 6.03223V14.0322" stroke="#FEF08A" stroke-width="1.5"/>
<path d="M24 6.03223V14.0322" stroke="#FEF08A" stroke-width="1.5"/>
<path d="M33 28.0322C32.4478 28.0322 32 27.5844 32 27.0322C32 26.48 32.4478 26.0322 33 26.0322C33.5522 26.0322 34 26.48 34 27.0322C34 27.5844 33.5522 28.0322 33 28.0322Z" fill="#FEF08A" stroke="#FEF08A" stroke-width="1.5" stroke-linecap="round" stroke-linejoin="round"/>
</svg>
